{"accessors" : [{"bufferView" : 0, "byteOffset" : 0, "componentType" : 5123, "count" : 24492, "type" : "SCALAR", "max" : [8221], "min" : [0]}, {"bufferView" : 1, "byteOffset" : 0, "componentType" : 5126, "count" : 8222, "type" : "VEC3", "max" : [0.15199999511241913, 0.10499999672174454, 3.4924596548080444E-09], "min" : [-0.15200001001358032, -0.09603267908096313, -0.009755848906934261], "name" : "POSITION"}, {"bufferView" : 1, "byteOffset" : 12, "componentType" : 5126, "count" : 8222, "type" : "VEC3", "max" : [1.0000044107437134, 1.0000044107437134, 1.0000044107437134], "min" : [-1.0000044107437134, -1.0000044107437134, -1.0000044107437134], "name" : "NORMAL"}, {"bufferView" : 1, "byteOffset" : 24, "componentType" : 5126, "count" : 8222, "type" : "VEC2", "max" : [0.9837092757225037, 1.9981542825698853], "min" : [0.009269103407859802, 1.024381160736084], "name" : "TEXCOORD_0"}, {"bufferView" : 0, "byteOffset" : 48984, "componentType" : 5123, "count" : 474, "type" : "SCALAR", "max" : [202], "min" : [0]}, {"bufferView" : 2, "byteOffset" : 0, "componentType" : 5126, "count" : 203, "type" : "VEC3", "max" : [0.15200001001358032, 0.19908371567726135, 0.006765663158148527], "min" : [-0.15199998021125793, -0.0019489675760269165, -0.004622588865458965], "name" : "POSITION"}, {"bufferView" : 2, "byteOffset" : 12, "componentType" : 5126, "count" : 203, "type" : "VEC3", "max" : [1.0000044107437134, 1.0000044107437134, 1.0000044107437134], "min" : [-1.0000044107437134, -1.0000044107437134, -1.0000044107437134], "name" : "NORMAL"}, {"bufferView" : 2, "byteOffset" : 24, "componentType" : 5126, "count" : 203, "type" : "VEC2", "max" : [0.984298586845398, 1.9950575828552246], "min" : [0.012971997261047363, 1.0068670511245728], "name" : "TEXCOORD_0"}], "asset" : {"generator" : "Aspose.3D 24.6.0", "version" : "2.0"}, "buffers" : [{"uri" : "data:application/octet-stream;base64,", "byteLength" : 319544}], "bufferViews" : [{"buffer" : 0, "byteOffset" : 0, "byteLength" : 49932, "target" : 34963}, {"buffer" : 0, "byteOffset" : 49936, "byteLength" : 263104, "byteStride" : 32, "target" : 34962}, {"buffer" : 0, "byteOffset" : 313044, "byteLength" : 6496, "byteStride" : 32, "target" : 34962}], "images" : [{"uri" : "data:image/png;base64,"}, {"uri" : "data:image/png;base64,"}, {"uri" : "data:image/png;base64,"}, {"uri" : "data:image/png;base64,"}, {"uri" : "data:image/png;base64,"}], "materials" : [{"name" : "ComputerFrame", "pbrMetallicRoughness" : {"baseColorFactor" : [1, 1, 1, 1], "baseColorTexture" : {"index" : 1, "texCoord" : 0}, "metallicFactor" : 0, "roughnessFactor" : 1}, "emissiveTexture" : {"index" : 0, "texCoord" : 0}, "emissiveFactor" : [1, 1, 1], "alphaMode" : "OPAQUE", "doubleSided" : true}, {"name" : "ComputerScreen", "pbrMetallicRoughness" : {"baseColorFactor" : [1, 1, 1, 1], "baseColorTexture" : {"index" : 3, "texCoord" : 0}, "metallicFactor" : 0, "roughnessFactor" : 1, "metallicRoughnessTexture" : {"index" : 4, "texCoord" : 0}}, "emissiveTexture" : {"index" : 2, "texCoord" : 0}, "emissiveFactor" : [1, 1, 1], "alphaMode" : "OPAQUE", "doubleSided" : true}], "meshes" : [{"primitives" : [{"attributes" : {"POSITION" : 1, "NORMAL" : 2, "TEXCOORD_0" : 3}, "indices" : 0, "material" : 0, "mode" : 4}]}, {"primitives" : [{"attributes" : {"POSITION" : 5, "NORMAL" : 6, "TEXCOORD_0" : 7}, "indices" : 4, "material" : 1, "mode" : 4}]}], "nodes" : [{"mesh" : 0, "name" : "Frame_ComputerFrame_0"}, {"children" : [0], "matrix" : [100, 0, 0, 0, 0, -1.629206793918314E-05, -99.99999999999868, 0, 0, 99.99999999999868, -1.629206793918314E-05, 0, 0, 0.9755473732948303, 0, 1], "name" : "Frame"}, {"mesh" : 1, "name" : "Screen_ComputerScreen_0"}, {"children" : [2], "matrix" : [-99.99999999998712, 3.258412842991097E-05, 3.8941437775530106E-05, 0, 3.2584122085542866E-05, 99.99999999999336, -1.6292079875223588E-05, 0, -3.436009841184489E-05, -1.4375354057900743E-05, -88.23529815673042, 0, 2.768618667658984E-13, 0.6500000357627869, -10.30000114440918, 1], "name" : "Screen"}, {"children" : [1, 3], "name" : "RootNode"}, {"children" : [4], "matrix" : [1, 0, 0, 0, 0, 0, 1, 0, 0, -1, 0, 0, 0, 0, 0, 1], "name" : "6d4c164f62674ba9b12714fec0584379.fbx"}, {"children" : [5], "matrix" : [1, 0, 0, 0, 0, 2.220446049250313E-16, -1, 0, 0, 1, 2.220446049250313E-16, 0, 0, 0, 0, 1], "name" : "Sketchfab_model"}], "samplers" : [{"magFilter" : 9729, "minFilter" : 9987, "wrapS" : 10497, "wrapT" : 10497}, {"magFilter" : 9729, "minFilter" : 9987, "wrapS" : 10497, "wrapT" : 10497}, {"magFilter" : 9729, "minFilter" : 9987, "wrapS" : 10497, "wrapT" : 10497}, {"magFilter" : 9729, "minFilter" : 9987, "wrapS" : 10497, "wrapT" : 10497}, {"magFilter" : 9729, "minFilter" : 9987, "wrapS" : 10497, "wrapT" : 10497}], "scene" : 0, "scenes" : [{"nodes" : [6]}], "textures" : [{"sampler" : 0, "source" : 0, "name" : ""}, {"sampler" : 1, "source" : 1, "name" : ""}, {"sampler" : 2, "source" : 2, "name" : ""}, {"sampler" : 3, "source" : 3, "name" : ""}, {"sampler" : 4, "source" : 4, "name" : ""}]}